<?xml version="1.0" encoding="UTF-8" standalone="no"?>
<!-- Created with Inkscape (http://www.inkscape.org/) -->

<svg
   xmlns:dc="http://purl.org/dc/elements/1.1/"
   xmlns:cc="http://creativecommons.org/ns#"
   xmlns:rdf="http://www.w3.org/1999/02/22-rdf-syntax-ns#"
   xmlns:svg="http://www.w3.org/2000/svg"
   xmlns="http://www.w3.org/2000/svg"
   xmlns:sodipodi="http://sodipodi.sourceforge.net/DTD/sodipodi-0.dtd"
   xmlns:inkscape="http://www.inkscape.org/namespaces/inkscape"
   width="210mm"
   height="297mm"
   viewBox="0 0 210 297"
   version="1.1"
   id="svg8"
   inkscape:version="0.92.4 (5da689c313, 2019-01-14)"
   sodipodi:docname="logo.svg"
   inkscape:export-filename="C:\Users\Laurie\Documents\OPENCLASSROOM\P5\LaurieMontagner_5_29112020\application\img\logo.svg.png"
   inkscape:export-xdpi="800"
   inkscape:export-ydpi="800">
  <defs
     id="defs2" />
  <sodipodi:namedview
     id="base"
     pagecolor="#ffffff"
     bordercolor="#666666"
     borderopacity="1.0"
     inkscape:pageopacity="0.0"
     inkscape:pageshadow="2"
     inkscape:zoom="0.49497475"
     inkscape:cx="-86.92572"
     inkscape:cy="1049.745"
     inkscape:document-units="mm"
     inkscape:current-layer="layer1"
     showgrid="false"
     inkscape:window-width="3840"
     inkscape:window-height="2104"
     inkscape:window-x="-16"
     inkscape:window-y="-16"
     inkscape:window-maximized="1" />
  <metadata
     id="metadata5">
    <rdf:RDF>
      <cc:Work
         rdf:about="">
        <dc:format>image/svg+xml</dc:format>
        <dc:type
           rdf:resource="http://purl.org/dc/dcmitype/StillImage" />
        <dc:title></dc:title>
      </cc:Work>
    </rdf:RDF>
  </metadata>
  <g
     inkscape:label="Calque 1"
     inkscape:groupmode="layer"
     id="layer1">
    <g
       id="g875"
       transform="matrix(0.03527778,0,0,-0.03527778,-336.94151,265.36427)"
       style="fill:#ffffff;stroke:none;fill-opacity:1;stroke-opacity:0.93674701;stroke-width:29.3385808;stroke-miterlimit:4;stroke-dasharray:none">
      <path
         id="path831"
         d="M 1217,4744 C 1060,4716 860,4633 745,4548 671,4493 411,4218 329,4108 223,3964 153,3794 112,3575 c -23,-126 -23,-470 1,-610 57,-330 163,-573 327,-748 177,-189 363,-267 640,-267 317,1 606,134 881,409 260,260 412,570 438,891 12,145 0,253 -54,473 -25,103 -45,212 -45,241 0,223 -138,463 -345,601 -131,87 -304,160 -326,138 -8,-8 -20,-6 -43,7 -81,48 -220,61 -369,34 z M 984,4421 C 778,4314 640,4205 528,4062 c -72,-93 -72,-93 -49,-34 58,146 122,228 244,308 84,56 157,90 257,120 121,37 122,27 4,-35 z m 357,-122 c 19,-7 42,-19 52,-27 15,-13 22,-14 38,-4 55,35 203,-117 299,-308 71,-141 127,-319 162,-510 8,-47 13,-145 12,-265 -1,-161 -4,-202 -23,-269 -30,-114 -78,-211 -122,-251 -82,-74 -277,-152 -452,-180 -145,-24 -180,-21 -248,20 -167,102 -288,325 -344,635 -23,126 -31,430 -16,599 20,222 63,318 176,393 35,22 69,51 76,64 13,26 86,58 204,90 92,26 138,29 186,13 z m 733,-1491 c -49,-149 -120,-264 -223,-361 -88,-83 -181,-138 -301,-178 -82,-27 -112,-32 -220,-35 -97,-3 -117,-1 -90,6 130,38 239,79 326,121 97,47 109,57 277,222 132,130 183,187 209,234 38,71 48,67 22,-9 z"
         inkscape:connector-curvature="0"
         style="fill:#ffffff;fill-opacity:1;stroke:none;stroke-opacity:0.93674701;stroke-width:29.3385808;stroke-miterlimit:4;stroke-dasharray:none" />
      <path
         id="path833"
         d="m 4815,4359 c -72,-38 -169,-150 -190,-219 -4,-14 -13,-32 -20,-40 -43,-49 -68,-238 -59,-437 l 7,-153 h 33 c 44,0 105,48 179,142 132,167 154,206 183,315 13,49 30,84 51,109 23,26 29,40 22,47 -6,6 -11,32 -11,58 0,78 -12,140 -28,147 -8,3 -28,1 -43,-5 -27,-10 -28,-9 -31,21 -4,40 -36,45 -93,15 z"
         inkscape:connector-curvature="0"
         style="fill:#ffffff;fill-opacity:1;stroke:none;stroke-opacity:0.93674701;stroke-width:29.3385808;stroke-miterlimit:4;stroke-dasharray:none" />
      <path
         id="path835"
         d="m 5593,3781 c -42,-26 -101,-86 -150,-152 -39,-52 -41,-60 -57,-179 -38,-300 -46,-828 -16,-1115 20,-198 51,-440 58,-456 6,-13 15,-14 52,-6 36,7 57,21 106,72 l 62,63 31,-81 c 42,-110 43,-111 80,-104 69,14 185,121 223,205 18,41 19,45 3,90 -9,26 -21,55 -26,65 -19,35 -68,245 -83,353 -8,60 -20,200 -26,312 -11,193 -11,204 7,217 37,28 290,153 338,168 100,31 127,30 179,-5 83,-54 152,-163 200,-315 80,-255 87,-449 23,-681 -21,-73 -46,-151 -57,-172 -46,-89 -13,-148 63,-116 l 37,15 v -44 c 0,-35 4,-45 20,-50 35,-11 106,32 166,101 31,35 87,87 125,115 l 69,51 v 58 c 0,32 -7,92 -16,132 -13,56 -17,137 -19,353 -4,450 -55,777 -138,887 -57,74 -83,83 -232,82 -110,-1 -144,-5 -219,-28 -158,-48 -328,-143 -476,-267 l -69,-59 6,33 c 4,17 7,88 7,157 l 1,125 -27,3 c -34,4 -83,-21 -129,-65 l -36,-35 1,144 1,143 -25,3 c -14,1 -39,-7 -57,-17 z"
         inkscape:connector-curvature="0"
         style="fill:#ffffff;fill-opacity:1;stroke:none;stroke-opacity:0.93674701;stroke-width:29.3385808;stroke-miterlimit:4;stroke-dasharray:none" />
      <path
         id="path837"
         d="m 11533,3781 c -42,-26 -101,-86 -150,-152 -39,-52 -41,-60 -57,-179 -38,-300 -46,-828 -16,-1115 20,-198 51,-440 58,-456 6,-13 15,-14 52,-6 36,7 57,21 106,72 l 62,63 31,-81 c 42,-110 43,-111 80,-104 69,14 185,121 223,205 18,41 19,45 3,90 -9,26 -21,55 -26,65 -19,35 -68,245 -83,353 -8,60 -20,200 -26,312 -11,193 -11,204 7,217 37,28 290,153 338,168 100,31 127,30 179,-5 83,-54 152,-163 200,-315 80,-255 87,-449 23,-681 -21,-73 -46,-151 -57,-172 -46,-89 -13,-148 63,-116 l 37,15 v -44 c 0,-35 4,-45 20,-50 35,-11 106,32 166,101 31,35 87,87 125,115 l 69,51 v 58 c 0,32 -7,92 -16,132 -13,56 -17,137 -19,353 -4,450 -55,777 -138,887 -57,74 -83,83 -232,82 -110,-1 -144,-5 -219,-28 -158,-48 -328,-143 -476,-267 l -69,-59 6,33 c 4,17 7,88 7,157 l 1,125 -27,3 c -34,4 -83,-21 -129,-65 l -36,-35 1,144 1,143 -25,3 c -14,1 -39,-7 -57,-17 z"
         inkscape:connector-curvature="0"
         style="fill:#ffffff;fill-opacity:1;stroke:none;stroke-opacity:0.93674701;stroke-width:29.3385808;stroke-miterlimit:4;stroke-dasharray:none" />
      <path
         id="path839"
         d="m 20025,3673 c -219,-20 -463,-94 -628,-190 -115,-67 -238,-204 -253,-282 l -7,-33 51,3 c 64,5 74,-12 27,-41 -77,-48 -174,-187 -160,-231 9,-27 45,-33 128,-21 40,6 83,9 95,5 22,-5 22,-5 3,-32 -25,-34 -34,-72 -22,-90 10,-15 161,-36 343,-47 l 117,-7 -6,-43 c -5,-39 -3,-44 18,-53 33,-15 195,-53 379,-91 l 155,-32 28,-38 c 27,-38 27,-39 7,-50 -11,-6 -44,-31 -72,-57 -65,-57 -102,-73 -203,-84 -44,-5 -107,-13 -140,-18 -70,-11 -328,-14 -374,-5 l -32,7 27,28 c 36,37 22,53 -43,53 -65,-1 -142,-42 -214,-113 -70,-71 -102,-131 -96,-180 4,-33 0,-40 -55,-90 -63,-57 -98,-113 -98,-157 0,-27 0,-27 58,-21 31,4 100,20 152,37 52,16 98,30 102,30 4,0 3,-12 -2,-26 -6,-14 -10,-36 -10,-49 0,-32 53,-49 155,-48 101,1 219,31 480,121 261,90 469,179 597,254 57,33 128,75 158,92 30,17 105,81 166,142 107,107 138,154 115,177 -6,6 -6,20 1,39 6,16 8,68 6,116 -5,102 -27,158 -89,232 -57,68 -131,102 -315,145 -82,19 -180,44 -219,54 -38,11 -146,38 -239,60 -93,22 -173,46 -178,53 -4,7 -8,27 -8,44 0,31 1,31 81,49 63,13 104,16 178,11 162,-11 177,-15 190,-43 l 12,-26 24,23 c 18,17 48,26 112,37 110,17 178,48 244,110 73,68 109,120 109,158 0,38 -20,49 -115,65 -62,10 -124,22 -236,46 -63,13 -387,18 -504,7 z"
         inkscape:connector-curvature="0"
         style="fill:#ffffff;fill-opacity:1;stroke:none;stroke-opacity:0.93674701;stroke-width:29.3385808;stroke-miterlimit:4;stroke-dasharray:none" />
      <path
         id="path841"
         d="m 9733,3605 c -28,-14 -71,-44 -96,-65 -25,-22 -52,-40 -61,-40 -55,0 -165,-100 -212,-192 -22,-43 -24,-59 -24,-182 0,-74 5,-170 11,-213 6,-43 12,-195 13,-338 3,-293 16,-391 66,-502 38,-82 72,-128 111,-149 25,-12 30,-20 25,-39 -12,-49 -8,-50 197,-53 199,-3 346,9 595,48 151,24 152,25 152,1 0,-31 18,-34 61,-12 23,12 56,20 78,19 l 40,-1 6,-76 c 8,-84 17,-101 50,-101 49,0 161,104 220,204 51,88 55,434 8,786 -9,65 -17,227 -20,375 -3,148 -9,265 -15,272 -5,6 -21,13 -35,15 -23,3 -27,11 -44,78 -31,121 -49,160 -73,160 -43,-1 -103,-39 -159,-100 -106,-117 -120,-178 -87,-365 21,-118 21,-127 5,-145 -16,-17 -15,-22 10,-91 18,-50 30,-115 40,-209 14,-145 10,-218 -21,-386 l -17,-92 -76,-6 c -42,-3 -161,-7 -266,-8 l -189,-3 -44,114 c -33,87 -50,155 -72,285 -57,338 -60,596 -10,771 33,115 23,143 -41,111 -18,-9 -34,-15 -35,-13 -2,2 1,28 8,58 23,109 -4,131 -99,84 z"
         inkscape:connector-curvature="0"
         style="fill:#ffffff;fill-opacity:1;stroke:none;stroke-opacity:0.93674701;stroke-width:29.3385808;stroke-miterlimit:4;stroke-dasharray:none" />
      <path
         id="path843"
         d="m 15673,3605 c -28,-14 -71,-44 -96,-65 -25,-22 -52,-40 -61,-40 -55,0 -165,-100 -212,-192 -22,-43 -24,-59 -24,-182 0,-74 5,-170 11,-213 6,-43 12,-195 13,-338 3,-293 16,-391 66,-502 38,-82 72,-128 111,-149 25,-12 30,-20 25,-39 -12,-49 -8,-50 197,-53 199,-3 346,9 595,48 151,24 152,25 152,1 0,-31 18,-34 61,-12 23,12 56,20 78,19 l 40,-1 6,-76 c 8,-84 17,-101 50,-101 49,0 161,104 220,204 51,88 55,434 8,786 -9,65 -17,227 -20,375 -3,148 -9,265 -15,272 -5,6 -21,13 -35,15 -23,3 -27,11 -44,78 -31,121 -49,160 -73,160 -43,-1 -103,-39 -159,-100 -106,-117 -120,-178 -87,-365 21,-118 21,-127 5,-145 -16,-17 -15,-22 10,-91 18,-50 30,-115 40,-209 14,-145 10,-218 -21,-386 l -17,-92 -76,-6 c -42,-3 -161,-7 -266,-8 l -189,-3 -44,114 c -33,87 -50,155 -72,285 -57,338 -60,596 -10,771 33,115 23,143 -41,111 -18,-9 -34,-15 -35,-13 -2,2 1,28 8,58 23,109 -4,131 -99,84 z"
         inkscape:connector-curvature="0"
         style="fill:#ffffff;fill-opacity:1;stroke:none;stroke-opacity:0.93674701;stroke-width:29.3385808;stroke-miterlimit:4;stroke-dasharray:none" />
      <path
         id="path845"
         d="m 8035,3548 c -130,-24 -292,-134 -463,-313 -238,-249 -356,-490 -369,-750 -7,-141 11,-226 73,-354 62,-127 138,-203 285,-283 181,-98 243,-110 644,-123 314,-10 354,4 575,202 240,215 250,229 331,473 69,203 66,277 -16,460 -24,52 -46,106 -50,120 -16,56 -89,181 -151,258 -52,65 -86,96 -165,148 -55,36 -128,79 -164,95 -64,31 -172,53 -210,43 -12,-3 -74,4 -139,15 -65,12 -121,20 -125,20 -3,-1 -28,-5 -56,-11 z m 102,-454 c 177,-51 355,-164 502,-319 97,-103 125,-149 148,-239 15,-63 15,-71 -1,-121 -48,-152 -329,-269 -646,-269 -150,0 -219,14 -327,65 -183,87 -287,282 -254,474 24,135 104,296 190,379 73,71 211,81 388,30 z"
         inkscape:connector-curvature="0"
         style="fill:#ffffff;fill-opacity:1;stroke:none;stroke-opacity:0.93674701;stroke-width:29.3385808;stroke-miterlimit:4;stroke-dasharray:none" />
      <path
         id="path847"
         d="m 13975,3548 c -130,-24 -292,-134 -463,-313 -238,-249 -356,-490 -369,-750 -7,-141 11,-226 73,-354 62,-127 138,-203 285,-283 181,-98 243,-110 644,-123 314,-10 354,4 575,202 240,215 250,229 331,473 69,203 66,277 -16,460 -24,52 -46,106 -50,120 -16,56 -89,181 -151,258 -52,65 -86,96 -165,148 -55,36 -128,79 -164,95 -64,31 -172,53 -210,43 -12,-3 -74,4 -139,15 -65,12 -121,20 -125,20 -3,-1 -28,-5 -56,-11 z m 102,-454 c 177,-51 355,-164 502,-319 97,-103 125,-149 148,-239 15,-63 15,-71 -1,-121 -48,-152 -329,-269 -646,-269 -150,0 -219,14 -327,65 -183,87 -287,282 -254,474 24,135 104,296 190,379 73,71 211,81 388,30 z"
         inkscape:connector-curvature="0"
         style="fill:#ffffff;fill-opacity:1;stroke:none;stroke-opacity:0.93674701;stroke-width:29.3385808;stroke-miterlimit:4;stroke-dasharray:none" />
      <path
         id="path849"
         d="m 3607,3534 c -132,-32 -278,-118 -410,-243 l -70,-66 8,110 c 4,60 13,128 20,152 7,24 9,45 5,48 -5,3 -32,-21 -60,-52 l -52,-58 6,58 c 3,31 3,57 -2,57 -4,0 -33,-23 -64,-50 l -57,-50 -3,27 c -4,38 -37,41 -91,9 -81,-47 -187,-183 -187,-240 -1,-25 -12,-40 -55,-76 -47,-37 -55,-49 -55,-77 0,-72 31,-326 60,-488 17,-93 35,-217 41,-275 56,-545 59,-572 79,-617 11,-25 20,-52 20,-59 0,-11 8,-13 28,-8 54,13 91,36 140,88 l 50,53 26,-66 c 38,-95 89,-161 124,-161 77,0 252,188 252,269 0,13 -3,21 -7,18 -3,-4 -14,0 -24,9 -13,12 -16,21 -9,33 6,11 2,37 -11,77 -11,32 -31,98 -44,145 l -23,87 21,21 21,20 -62,193 c -65,201 -75,246 -87,390 l -7,86 42,31 c 107,77 257,124 400,125 126,0 192,-20 251,-76 60,-57 90,-78 115,-78 23,0 34,-17 34,-54 0,-27 18,-46 43,-46 25,0 78,32 74,44 -2,6 14,49 34,96 l 38,85 45,5 c 25,3 48,8 51,11 11,12 -35,224 -60,275 -31,63 -90,117 -154,141 -25,9 -59,25 -74,36 -78,53 -236,71 -360,41 z"
         inkscape:connector-curvature="0"
         style="fill:#ffffff;fill-opacity:1;stroke:none;stroke-opacity:0.93674701;stroke-width:29.3385808;stroke-miterlimit:4;stroke-dasharray:none" />
      <path
         id="path851"
         d="m 4785,3509 c -22,-22 -56,-49 -76,-59 -56,-29 -142,-113 -171,-167 -43,-79 -50,-141 -44,-372 3,-115 8,-227 11,-248 3,-21 10,-173 15,-338 7,-191 16,-329 26,-380 9,-44 18,-96 20,-115 11,-83 11,-83 59,-78 38,5 44,3 54,-18 13,-29 44,-31 86,-6 17,11 48,22 70,26 31,6 55,24 116,84 42,43 86,97 99,121 22,44 22,46 7,110 -23,96 -54,287 -72,441 -13,106 -16,225 -14,553 2,310 0,420 -9,429 -9,9 -22,7 -56,-9 l -43,-22 -9,41 c -5,23 -14,43 -19,45 -6,2 -29,-15 -50,-38 z"
         inkscape:connector-curvature="0"
         style="fill:#ffffff;fill-opacity:1;stroke:none;stroke-opacity:0.93674701;stroke-width:29.3385808;stroke-miterlimit:4;stroke-dasharray:none" />
      <path
         id="path853"
         d="m 18207,3534 c -132,-32 -278,-118 -410,-243 l -70,-66 8,110 c 4,60 13,128 20,152 7,24 9,45 5,48 -5,3 -32,-21 -60,-52 l -52,-58 6,58 c 3,31 3,57 -2,57 -4,0 -33,-23 -64,-50 l -57,-50 -3,27 c -4,38 -37,41 -91,9 -81,-47 -187,-183 -187,-240 -1,-25 -12,-40 -55,-76 -47,-37 -55,-49 -55,-77 0,-72 31,-326 60,-488 17,-93 35,-217 41,-275 56,-545 59,-572 79,-617 11,-25 20,-52 20,-59 0,-11 8,-13 28,-8 54,13 91,36 140,88 l 50,53 26,-66 c 38,-95 89,-161 124,-161 77,0 252,188 252,269 0,13 -3,21 -7,18 -3,-4 -14,0 -24,9 -13,12 -16,21 -9,33 6,11 2,37 -11,77 -11,32 -31,98 -44,145 l -23,87 21,21 21,20 -62,193 c -65,201 -75,246 -87,390 l -7,86 42,31 c 107,77 257,124 400,125 126,0 192,-20 251,-76 60,-57 90,-78 115,-78 23,0 34,-17 34,-54 0,-27 18,-46 43,-46 25,0 78,32 74,44 -2,6 14,49 34,96 l 38,85 45,5 c 25,3 48,8 51,11 11,12 -35,224 -60,275 -31,63 -90,117 -154,141 -25,9 -59,25 -74,36 -78,53 -236,71 -360,41 z"
         inkscape:connector-curvature="0"
         style="fill:#ffffff;fill-opacity:1;stroke:none;stroke-opacity:0.93674701;stroke-width:29.3385808;stroke-miterlimit:4;stroke-dasharray:none" />
      <path
         id="path855"
         d="m 17660,1263 c -56,-20 -157,-120 -190,-187 -30,-63 -39,-197 -17,-279 36,-135 104,-199 218,-205 56,-4 77,0 122,21 76,35 141,98 177,171 41,82 47,147 26,249 -10,45 -20,92 -22,104 -6,33 -61,91 -108,115 -54,27 -147,33 -206,11 z m 153,-145 c 57,-68 85,-235 53,-313 -24,-58 -141,-102 -189,-70 -75,49 -115,281 -61,362 46,72 146,82 197,21 z"
         inkscape:connector-curvature="0"
         style="fill:#ffffff;fill-opacity:1;stroke:none;stroke-opacity:0.93674701;stroke-width:29.3385808;stroke-miterlimit:4;stroke-dasharray:none" />
      <path
         id="path857"
         d="m 16284,1242 c -64,-47 -66,-52 -55,-123 8,-48 7,-94 -5,-192 -21,-170 -16,-337 10,-366 38,-42 106,-25 218,53 108,75 159,142 160,208 1,55 -23,101 -69,133 -49,33 -87,32 -158,-4 l -58,-29 6,96 c 4,54 9,120 13,149 7,54 0,103 -15,103 -4,0 -26,-13 -47,-28 z m 183,-424 c 27,-29 38,-87 20,-110 -12,-16 -97,-58 -116,-58 -4,0 -8,6 -9,13 -25,185 -27,177 44,177 29,0 46,-6 61,-22 z"
         inkscape:connector-curvature="0"
         style="fill:#ffffff;fill-opacity:1;stroke:none;stroke-opacity:0.93674701;stroke-width:29.3385808;stroke-miterlimit:4;stroke-dasharray:none" />
      <path
         id="path859"
         d="m 18582,1174 c -36,-25 -52,-68 -52,-139 0,-50 3,-65 14,-65 20,0 76,69 83,103 3,15 10,30 14,33 17,10 10,63 -10,74 -25,13 -22,13 -49,-6 z"
         inkscape:connector-curvature="0"
         style="fill:#ffffff;fill-opacity:1;stroke:none;stroke-opacity:0.93674701;stroke-width:29.3385808;stroke-miterlimit:4;stroke-dasharray:none" />
      <path
         id="path861"
         d="m 20085,1060 c -25,-26 -35,-30 -86,-30 -112,0 -233,-72 -301,-179 -52,-83 -29,-164 67,-241 75,-61 138,-74 198,-44 66,33 178,125 194,159 21,44 11,55 -25,27 -85,-68 -186,-95 -245,-67 -42,20 -107,95 -107,123 0,23 88,107 136,130 29,13 35,13 70,-4 l 39,-19 -3,-57 c -3,-47 0,-59 13,-64 21,-8 90,55 76,69 -11,11 -3,66 10,81 11,13 12,146 1,146 -5,0 -21,-13 -37,-30 z"
         inkscape:connector-curvature="0"
         style="fill:#ffffff;fill-opacity:1;stroke:none;stroke-opacity:0.93674701;stroke-width:29.3385808;stroke-miterlimit:4;stroke-dasharray:none" />
      <path
         id="path863"
         d="m 18757,1020 c -20,-23 -27,-45 -33,-107 -7,-77 1,-277 12,-320 7,-27 26,-30 45,-7 12,14 14,14 21,-5 9,-26 32,-27 58,-1 24,24 24,35 5,115 -8,33 -15,84 -15,113 v 53 l 52,24 c 65,30 84,21 112,-51 22,-59 24,-134 3,-192 -13,-37 -13,-44 0,-57 23,-23 46,-18 83,20 l 33,34 -6,133 c -7,144 -19,206 -45,226 -35,27 -135,5 -200,-44 l -34,-26 2,23 c 4,44 1,52 -20,46 -17,-4 -20,0 -20,24 0,38 -21,38 -53,-1 z"
         inkscape:connector-curvature="0"
         style="fill:#ffffff;fill-opacity:1;stroke:none;stroke-opacity:0.93674701;stroke-width:29.3385808;stroke-miterlimit:4;stroke-dasharray:none" />
      <path
         id="path865"
         d="m 17063,965 c -35,-33 -69,-82 -102,-145 -27,-52 -56,-95 -63,-95 -7,0 -34,40 -59,89 -46,88 -110,165 -140,166 -8,0 -28,-13 -43,-29 -39,-41 -31,-76 42,-173 31,-43 76,-109 100,-148 l 43,-69 -17,-58 c -9,-32 -25,-85 -36,-117 -13,-41 -16,-62 -9,-69 6,-6 11,-7 11,-1 0,5 4,3 9,-4 16,-26 68,33 92,106 12,37 34,94 49,127 14,33 39,99 55,147 15,48 50,134 77,190 62,129 60,150 -9,83 z"
         inkscape:connector-curvature="0"
         style="fill:#ffffff;fill-opacity:1;stroke:none;stroke-opacity:0.93674701;stroke-width:29.3385808;stroke-miterlimit:4;stroke-dasharray:none" />
      <path
         id="path867"
         d="m 18286,975 c -22,-8 -53,-24 -69,-36 l -30,-22 6,31 c 6,29 5,31 -21,28 -15,-2 -35,-4 -44,-5 -19,-1 -68,-50 -68,-68 0,-6 -5,-13 -12,-15 -10,-4 -10,-27 1,-109 7,-57 17,-137 22,-178 10,-85 17,-98 48,-81 19,9 25,8 41,-12 21,-26 40,-20 73,24 16,22 17,29 7,49 -7,13 -14,39 -15,59 -2,19 -11,66 -22,103 l -18,69 23,18 c 38,31 95,35 142,9 22,-12 40,-26 40,-31 0,-18 28,-6 38,17 6,14 16,25 22,25 5,0 10,11 10,24 0,48 -18,75 -64,96 -52,23 -58,24 -110,5 z"
         inkscape:connector-curvature="0"
         style="fill:#ffffff;fill-opacity:1;stroke:none;stroke-opacity:0.93674701;stroke-width:29.3385808;stroke-miterlimit:4;stroke-dasharray:none" />
      <path
         id="path869"
         d="m 18563,962 c -47,-41 -55,-71 -48,-192 12,-217 14,-228 41,-234 29,-8 79,16 95,45 8,15 8,38 0,83 -6,35 -11,117 -11,184 0,102 -2,122 -15,122 -8,0 -15,5 -15,10 0,16 -13,11 -47,-18 z"
         inkscape:connector-curvature="0"
         style="fill:#ffffff;fill-opacity:1;stroke:none;stroke-opacity:0.93674701;stroke-width:29.3385808;stroke-miterlimit:4;stroke-dasharray:none" />
      <path
         id="path871"
         d="m 19342,973 c -87,-42 -172,-169 -172,-255 0,-109 60,-164 196,-181 107,-13 143,-3 209,60 78,74 94,151 51,245 -40,91 -95,131 -196,141 -40,5 -64,2 -88,-10 z m 103,-125 c 37,-20 102,-84 110,-109 9,-27 -12,-59 -48,-74 -161,-66 -293,26 -225,155 33,61 82,70 163,28 z"
         inkscape:connector-curvature="0"
         style="fill:#ffffff;fill-opacity:1;stroke:none;stroke-opacity:0.93674701;stroke-width:29.3385808;stroke-miterlimit:4;stroke-dasharray:none" />
      <path
         id="path873"
         d="m 20362,973 c -87,-42 -172,-169 -172,-255 0,-109 60,-164 196,-181 107,-13 143,-3 209,60 78,74 94,151 51,245 -40,91 -95,131 -196,141 -40,5 -64,2 -88,-10 z m 103,-125 c 37,-20 102,-84 110,-109 9,-27 -12,-59 -48,-74 -161,-66 -293,26 -225,155 33,61 82,70 163,28 z"
         inkscape:connector-curvature="0"
         style="fill:#ffffff;fill-opacity:1;stroke:none;stroke-opacity:0.93674701;stroke-width:29.3385808;stroke-miterlimit:4;stroke-dasharray:none" />
    </g>
  </g>
</svg>
